<svg version="1.1" viewBox="0.0 0.0 64.0 64.0" fill="none" stroke="none" stroke-linecap="square" stroke-miterlimit="10" xmlns:xlink="http://www.w3.org/1999/xlink" xmlns="http://www.w3.org/2000/svg"><clipPath id="p.0"><path d="m0 0l64.0 0l0 64.0l-64.0 0l0 -64.0z" clip-rule="nonzero"/></clipPath><g clip-path="url(#p.0)"><path fill="#000000" fill-opacity="0.0" d="m0 0l64.0 0l0 64.0l-64.0 0z" fill-rule="evenodd"/><path fill="#000000" fill-opacity="0.0" d="m-4.4908137 7.1154857l80.59843 0l0 44.976376l-80.59843 0z" fill-rule="evenodd"/><path fill="#4a86e8" d="m5.6654363 24.022362l4.5000005 -0.4375q0.40625 2.265625 1.640625 3.328125q1.25 1.0625 3.359375 1.0625q2.234374 0 3.359374 -0.9375q1.140625 -0.953125 1.140625 -2.21875q0 -0.8125 -0.484375 -1.375q-0.46875 -0.578125 -1.65625 -1.0q-0.8125 -0.28125 -3.703124 -1.0q-3.71875 -0.921875 -5.21875 -2.265625q-2.1093755 -1.890625 -2.1093755 -4.609376q0 -1.75 0.984375 -3.265625q1.0000005 -1.53125 2.8593755 -2.328125q1.875 -0.796875 4.515625 -0.796875q4.312499 0 6.484374 1.890625q2.1875 1.890625 2.296875 5.046875l-4.625 0.203125q-0.296875 -1.765625 -1.28125 -2.53125q-0.96875 -0.78125 -2.921874 -0.78125q-2.015625 0 -3.15625 0.828125q-0.734375 0.53125 -0.734375 1.421875q0 0.8125 0.6875 1.390625q0.875 0.73437595 4.25 1.531251q3.374999 0.796875 4.984374 1.65625q1.625 0.84375 2.53125 2.328125q0.921875 1.46875 0.921875 3.640625q0 1.96875 -1.09375 3.6875q-1.09375 1.71875 -3.09375 2.5625q-2.0 0.828125 -4.984374 0.828125q-4.34375 0 -6.671875 -2.0q-2.3281255 -2.015625 -2.7812505 -5.859375z" fill-rule="nonzero"/><path fill="#a4c2f4" d="m27.009186 24.022362l4.5 -0.4375q0.40625 2.265625 1.640625 3.328125q1.25 1.0625 3.359375 1.0625q2.234375 0 3.359375 -0.9375q1.140625 -0.953125 1.140625 -2.21875q0 -0.8125 -0.484375 -1.375q-0.46875 -0.578125 -1.65625 -1.0q-0.8125 -0.28125 -3.703125 -1.0q-3.71875 -0.921875 -5.21875 -2.265625q-2.109375 -1.890625 -2.109375 -4.609376q0 -1.75 0.984375 -3.265625q1.0 -1.53125 2.859375 -2.328125q1.875 -0.796875 4.515625 -0.796875q4.3125 0 6.484375 1.890625q2.1875 1.890625 2.296875 5.046875l-4.625 0.203125q-0.296875 -1.765625 -1.28125 -2.53125q-0.96875 -0.78125 -2.921875 -0.78125q-2.015625 0 -3.15625 0.828125q-0.734375 0.53125 -0.734375 1.421875q0 0.8125 0.6875 1.390625q0.875 0.73437595 4.25 1.531251q3.375 0.796875 4.984375 1.65625q1.625 0.84375 2.53125 2.328125q0.921875 1.46875 0.921875 3.640625q0 1.96875 -1.09375 3.6875q-1.09375 1.71875 -3.09375 2.5625q-2.0 0.828125 -4.984375 0.828125q-4.34375 0 -6.671875 -2.0q-2.328125 -2.015625 -2.78125 -5.859375z" fill-rule="nonzero"/><path fill="#38761d" d="m25.30606 45.194237l4.375 0.734375q-0.84375 2.40625 -2.671875 3.671875q-1.8125 1.25 -4.546875 1.25q-4.328125 0 -6.40625 -2.828125q-1.640624 -2.265625 -1.640624 -5.71875q0 -4.125 2.156249 -6.453125q2.15625 -2.34375 5.453125 -2.34375q3.703125 0 5.84375 2.453125q2.140625 2.4375 2.046875 7.484375l-11.0 0q0.046875 1.953125 1.0625 3.046875q1.015625 1.078125 2.53125 1.078125q1.03125 0 1.734375 -0.5625q0.703125 -0.5625 1.0625 -1.8125zm0.25 -4.4375q-0.046875 -1.90625 -0.984375 -2.890625q-0.9375 -1.0 -2.28125 -1.0q-1.4375 0 -2.375 1.046875q-0.9375 1.046875 -0.921875 2.84375l6.5625 0zm12.140625 9.71875l-4.390625 0l0 -16.59375l4.078125 0l0 2.359375q1.046875 -1.671875 1.875 -2.203125q0.84375 -0.53125 1.90625 -0.53125q1.5 0 2.890625 0.828125l-1.359375 3.828125q-1.109375 -0.71875 -2.0625 -0.71875q-0.921875 0 -1.5625 0.515625q-0.640625 0.5 -1.015625 1.828125q-0.359375 1.328125 -0.359375 5.5625l0 5.125z" fill-rule="nonzero"/></g></svg>
